<svg width="21" height="22" viewBox="0 0 21 22" fill="none" xmlns="http://www.w3.org/2000/svg">
<g filter="url(#filter0_d_105_73)">
<path d="M5.42886 15.0444C5.09821 14.6193 4.68491 13.7572 3.96457 12.6826C3.55127 12.0922 2.53572 10.9704 2.22869 10.3917C2.00736 10.0401 1.94314 9.61195 2.05156 9.21086C2.23691 8.44826 2.96031 7.94238 3.74021 8.02999C4.3434 8.15116 4.89773 8.4468 5.33439 8.88021C5.63926 9.16737 5.91971 9.47941 6.17281 9.8131C6.36175 10.0493 6.40898 10.1437 6.62154 10.4153C6.8341 10.6869 6.9758 10.9586 6.86952 10.5571C6.78686 9.96662 6.64516 8.97468 6.44441 8.08903C6.29089 7.41593 6.25547 7.30965 6.11376 6.80188C5.97206 6.2941 5.8894 5.86899 5.73588 5.29036C5.59556 4.72185 5.48519 4.14637 5.40524 3.56628C5.25639 2.82435 5.36468 2.05384 5.71227 1.38167C6.12485 0.993598 6.7301 0.891172 7.2474 1.12188C7.76769 1.50606 8.15561 2.04255 8.35742 2.65701C8.66689 3.41323 8.87342 4.20757 8.97148 5.01876C9.16042 6.19963 9.52649 7.92371 9.53829 8.27797C9.53829 7.84105 9.45563 6.91996 9.53829 6.50666C9.62019 6.07579 9.91967 5.7182 10.3295 5.56196C10.6812 5.45406 11.0532 5.4298 11.4159 5.49111C11.782 5.56765 12.1063 5.77823 12.3252 6.08154C12.5987 6.77046 12.7506 7.50166 12.7739 8.24254C12.8055 7.59375 12.9166 6.95129 13.1045 6.32953C13.3019 6.05149 13.59 5.85103 13.9193 5.76271C14.3097 5.69133 14.7098 5.69133 15.1002 5.76271C15.4203 5.86973 15.7004 6.07153 15.9032 6.34134C16.1533 6.96761 16.3047 7.62889 16.3519 8.30159C16.3519 8.46691 16.4346 7.84105 16.6944 7.42774C16.8294 7.02695 17.168 6.72863 17.5826 6.64515C17.9972 6.56167 18.4248 6.70571 18.7044 7.02303C18.984 7.34034 19.073 7.78271 18.938 8.1835C18.938 8.95107 18.938 8.91564 18.938 9.43522C18.938 9.95481 18.938 10.4153 18.938 10.8523C18.895 11.5433 18.8003 12.2301 18.6546 12.907C18.4491 13.5058 18.1631 14.0739 17.8044 14.5956C17.231 15.2333 16.7573 15.9539 16.3992 16.733C16.3103 17.1201 16.2706 17.5169 16.2811 17.9139C16.2799 18.2807 16.3275 18.6461 16.4228 19.0003C15.94 19.0513 15.4531 19.0513 14.9703 19.0003C14.5098 18.9294 13.943 18.0084 13.7894 17.725C13.7135 17.5728 13.558 17.4766 13.3879 17.4766C13.2179 17.4766 13.0624 17.5728 12.9864 17.725C12.7267 18.1737 12.148 18.9885 11.7465 19.0357C10.9553 19.1302 9.32574 19.0357 8.03859 19.0357C8.03859 19.0357 8.25114 17.8549 7.76699 17.4297C7.28283 17.0046 6.78686 16.5087 6.42079 16.178L5.42886 15.0444Z" fill="white"/>
<path fill-rule="evenodd" clip-rule="evenodd" d="M5.42886 15.0444C5.09821 14.6193 4.68491 13.7572 3.96457 12.6826C3.55127 12.0922 2.53572 10.9704 2.22869 10.3917C2.00736 10.0401 1.94314 9.61195 2.05156 9.21086C2.23691 8.44826 2.96031 7.94238 3.74021 8.02999C4.3434 8.15116 4.89773 8.4468 5.33439 8.88021C5.63926 9.16737 5.91971 9.47941 6.17281 9.8131C6.36175 10.0493 6.40898 10.1437 6.62154 10.4153C6.8341 10.6869 6.9758 10.9586 6.86952 10.5571C6.78686 9.96662 6.64516 8.97468 6.44441 8.08903C6.29089 7.41593 6.25547 7.30965 6.11376 6.80188C5.97206 6.2941 5.8894 5.86899 5.73588 5.29036C5.59556 4.72185 5.48519 4.14637 5.40524 3.56628C5.25639 2.82435 5.36468 2.05384 5.71227 1.38167C6.12485 0.993598 6.7301 0.891172 7.2474 1.12188C7.76769 1.50606 8.15561 2.04255 8.35742 2.65701C8.66689 3.41323 8.87342 4.20757 8.97148 5.01876C9.16042 6.19963 9.52649 7.92371 9.53829 8.27797C9.53829 7.84105 9.45563 6.91996 9.53829 6.50666C9.62019 6.07579 9.91967 5.7182 10.3295 5.56196C10.6812 5.45406 11.0532 5.4298 11.4159 5.49111C11.782 5.56765 12.1063 5.77823 12.3252 6.08154C12.5987 6.77046 12.7506 7.50166 12.7739 8.24254C12.8055 7.59375 12.9166 6.95129 13.1045 6.32953C13.3019 6.05149 13.59 5.85103 13.9193 5.76271C14.3097 5.69133 14.7098 5.69133 15.1002 5.76271C15.4203 5.86973 15.7004 6.07153 15.9032 6.34134C16.1533 6.96761 16.3047 7.62889 16.3519 8.30159C16.3519 8.46691 16.4346 7.84105 16.6944 7.42774C16.8294 7.02695 17.168 6.72863 17.5826 6.64515C17.9972 6.56167 18.4248 6.70571 18.7044 7.02303C18.984 7.34034 19.073 7.78271 18.938 8.1835C18.938 8.95107 18.938 8.91564 18.938 9.43522C18.938 9.95481 18.938 10.4153 18.938 10.8523C18.895 11.5433 18.8003 12.2301 18.6546 12.907C18.4491 13.5058 18.1631 14.0739 17.8044 14.5956C17.231 15.2333 16.7573 15.9539 16.3992 16.733C16.3103 17.1201 16.2706 17.5169 16.2811 17.9139C16.2799 18.2807 16.3275 18.6461 16.4228 19.0003C15.94 19.0513 15.4531 19.0513 14.9703 19.0003C14.5098 18.9294 13.943 18.0084 13.7894 17.725C13.7135 17.5728 13.558 17.4766 13.3879 17.4766C13.2179 17.4766 13.0624 17.5728 12.9864 17.725C12.7267 18.1737 12.148 18.9885 11.7465 19.0357C10.9553 19.1302 9.32574 19.0357 8.03859 19.0357C8.03859 19.0357 8.25114 17.8549 7.76699 17.4297C7.28283 17.0046 6.78686 16.5087 6.42079 16.178L5.42886 15.0444Z" stroke="#D4CEFF" stroke-width="0.814473" stroke-linecap="round" stroke-linejoin="round"/>
<path d="M15.4427 15.689V11.6129C15.4427 11.3689 15.2444 11.1711 14.9998 11.1711C14.7553 11.1711 14.557 11.3689 14.557 11.6129V15.689C14.557 15.933 14.7553 16.1308 14.9998 16.1308C15.2444 16.1308 15.4427 15.933 15.4427 15.689Z" fill="#D4CEFF"/>
<path d="M13.1046 15.6875L13.081 11.6093C13.0796 11.3659 12.8802 11.1697 12.6356 11.1711C12.391 11.1725 12.1939 11.371 12.1953 11.6144L12.2189 15.6926C12.2203 15.936 12.4197 16.1322 12.6643 16.1308C12.9089 16.1294 13.106 15.9309 13.1046 15.6875Z" fill="#D4CEFF"/>
<path d="M9.83363 11.6187L9.85724 15.6884C9.85867 15.9342 10.0581 16.1322 10.3026 16.1308C10.5472 16.1293 10.7443 15.929 10.7429 15.6832L10.7193 11.6135C10.7178 11.3677 10.5184 11.1697 10.2739 11.1711C10.0293 11.1726 9.8322 11.3729 9.83363 11.6187Z" fill="#D4CEFF"/>
</g>
<defs>
<filter id="filter0_d_105_73" x="0.724003" y="0.592743" width="19.552" height="20.847" filterUnits="userSpaceOnUse" color-interpolation-filters="sRGB">
<feFlood flood-opacity="0" result="BackgroundImageFix"/>
<feColorMatrix in="SourceAlpha" type="matrix" values="0 0 0 0 0 0 0 0 0 0 0 0 0 0 0 0 0 0 127 0" result="hardAlpha"/>
<feOffset dy="1.08596"/>
<feGaussianBlur stdDeviation="0.434385"/>
<feColorMatrix type="matrix" values="0 0 0 0 0 0 0 0 0 0 0 0 0 0 0 0 0 0 0.5 0"/>
<feBlend mode="normal" in2="BackgroundImageFix" result="effect1_dropShadow_105_73"/>
<feBlend mode="normal" in="SourceGraphic" in2="effect1_dropShadow_105_73" result="shape"/>
</filter>
</defs>
</svg>
